<?xml version="1.0" encoding="UTF-8"?>
<svg width="800" height="800" viewBox="0 0 800 800" fill="none" xmlns="http://www.w3.org/2000/svg">
  <!-- Background -->
  <rect width="800" height="800" fill="#F3F4F6"/>
  
  <!-- Image icon -->
  <path d="M400 300C413.255 300 424 289.255 424 276C424 262.745 413.255 252 400 252C386.745 252 376 262.745 376 276C376 289.255 386.745 300 400 300Z" fill="#9CA3AF"/>
  <path d="M520 360H280C269.2 360 260 369.2 260 380V500C260 510.8 269.2 520 280 520H520C530.8 520 540 510.8 540 500V380C540 369.2 530.8 360 520 360ZM520 500H280V380H520V500Z" fill="#9CA3AF"/>
  
  <!-- Text -->
  <text x="400" y="600" text-anchor="middle" font-family="system-ui, -apple-system" font-size="24" fill="#6B7280">
    No Image Available
  </text>
</svg>
